# xmcd
#
# Track frame offsets:
#	150
#	43630
#	89712
#	124787
#	163287
#	191435
#	222627
#	266487
#
# Disc length: 4060 seconds
#
# Revision: 1
# Processed by: cddbd v1.4PL0 Copyright (c) Steve Scherf et al.
# Submitted via: audiograbber 1.80
#
DISCID=790fda08
DTITLE=Corpo - Live
DYEAR=1900
DGENRE=
TTITLE0=Sfinxen
TTITLE1=Dans I Motvals
TTITLE2=Svåst Fall, Doktorn Grät
TTITLE3=Tåsta and Turné
TTITLE4=Självklast
TTITLE5=Mendoza
TTITLE6=Mei Ming
TTITLE7=Ge Dej Hän
EXTD=
EXTT0=
EXTT1=
EXTT2=
EXTT3=
EXTT4=
EXTT5=
EXTT6=
EXTT7=
PLAYORDER=
